<svg width="24" height="24" viewBox="0 0 24 24" fill="none" xmlns="http://www.w3.org/2000/svg">
<path fill-rule="evenodd" clip-rule="evenodd" d="M12 10.5C13.6568 10.5 15 9.15683 15 7.5C15 5.84314 13.6568 4.5 12 4.5C10.3432 4.5 9 5.84314 9 7.5C9 7.70182 8.66812 7.86083 8.53845 7.70618L8.31435 7.43912C8.27445 7.39159 8.25323 7.33069 8.25705 7.26875C8.37645 5.30539 10.0066 3.75 12 3.75C14.071 3.75 15.75 5.42894 15.75 7.5C15.75 9.57105 14.071 11.25 12 11.25C11.8573 11.25 11.7165 11.2421 11.578 11.2265C11.5163 11.2196 11.4602 11.1882 11.4203 11.1407C11.2432 10.9296 11.5505 10.4792 11.8256 10.495C11.8833 10.4983 11.9414 10.5 12 10.5ZM10.9517 12.9158C10.8777 12.8276 10.7663 12.7789 10.6514 12.785C7.9782 12.9272 6.37781 13.4686 5.67461 13.7706C5.40425 13.8867 5.25 14.157 5.25 14.4512C5.25 17.2396 7.51043 19.5 10.2988 19.5H13.7012C14.3626 19.5 14.9943 19.3728 15.5732 19.1416C15.8012 19.0505 15.8588 18.7639 15.701 18.5758C15.5897 18.4432 15.4039 18.4034 15.2423 18.4655C14.7639 18.6493 14.2443 18.75 13.7012 18.75H10.2988C7.92465 18.75 6 16.8253 6 14.4512C6.00005 14.4487 6.0014 14.4467 6.00367 14.4457C6.64238 14.176 8.14343 13.6711 10.6766 13.5347C10.9862 13.518 11.151 13.1533 10.9517 12.9158ZM13.5994 13.5512C13.4944 13.5443 13.396 13.4953 13.3285 13.4147C13.1163 13.1618 13.3031 12.7802 13.6325 12.8018C16.1356 12.9657 17.6474 13.4795 18.3254 13.7706C18.5957 13.8868 18.75 14.157 18.75 14.4512C18.75 15.7204 18.2817 16.8802 17.5085 17.7673C17.3641 17.9329 17.1084 17.9195 16.9672 17.7512C16.8415 17.6015 16.8525 17.3816 16.9791 17.2326C17.6158 16.4829 18 15.5119 18 14.4512C17.9999 14.4487 17.9986 14.4467 17.9963 14.4457C17.3811 14.1859 15.9661 13.708 13.5994 13.5512Z" fill="#DB0000"/>
<path d="M5.1055 6.27374C4.97823 6.12264 4.99777 5.89694 5.1491 5.76995C5.30004 5.64329 5.52502 5.66277 5.65196 5.81348L17.5253 19.9103C17.6525 20.0614 17.633 20.2871 17.4817 20.4141C17.3307 20.5408 17.1057 20.5213 16.9788 20.3706L5.1055 6.27374Z" fill="#DB0000"/>
</svg>
