<svg width="24" height="24" viewBox="0 0 24 24" fill="none" xmlns="http://www.w3.org/2000/svg">
<g clip-path="url(#clip0_2020_674)">
<path d="M19.2656 7.26562C19.2656 12.1878 12.7735 18.7365 12.4972 19.0128C12.2226 19.2874 11.7774 19.2874 11.5028 19.0128C11.2265 18.7365 4.73438 12.1878 4.73438 7.26562C4.73438 3.25936 7.99373 0 12 0C16.0063 0 19.2656 3.25936 19.2656 7.26562Z" fill="url(#paint0_linear_2020_674)"/>
<path d="M18.8695 20.6589L12.9826 23.7573C12.3676 24.081 11.6327 24.081 11.0177 23.7573L5.13084 20.6589C3.62826 19.8681 3.62826 17.7165 5.13084 16.9256L8.29434 15.2606C9.85776 17.3547 11.3726 18.8824 11.503 19.0128C11.7776 19.2874 12.2227 19.2874 12.4973 19.0128C12.6277 18.8824 14.1426 17.3547 15.706 15.2606L18.8695 16.9256C20.3721 17.7165 20.3721 19.8681 18.8695 20.6589ZM12.0001 3.75C10.0616 3.75 8.48451 5.32711 8.48451 7.26562C8.48451 9.20414 10.0616 10.7812 12.0001 10.7812C13.9387 10.7812 15.5158 9.20414 15.5158 7.26562C15.5158 5.32711 13.9387 3.75 12.0001 3.75Z" fill="url(#paint1_linear_2020_674)"/>
</g>
<defs>
<linearGradient id="paint0_linear_2020_674" x1="12" y1="19.2187" x2="12" y2="0" gradientUnits="userSpaceOnUse">
<stop stop-color="#5558FF"/>
<stop offset="1" stop-color="#00C0FF"/>
</linearGradient>
<linearGradient id="paint1_linear_2020_674" x1="12.0001" y1="24" x2="12.0001" y2="3.75" gradientUnits="userSpaceOnUse">
<stop stop-color="#ADDCFF"/>
<stop offset="0.5028" stop-color="#EAF6FF"/>
<stop offset="1" stop-color="#EAF6FF"/>
</linearGradient>
<clipPath id="clip0_2020_674">
<rect width="24" height="24" fill="white"/>
</clipPath>
</defs>
</svg>
