<svg width="30" height="30" viewBox="0 0 30 30" fill="none" xmlns="http://www.w3.org/2000/svg">
<path d="M23.6827 23.2204L23.683 23.2204L23.682 23.213L21.9523 10.5521L21.9523 10.5518C21.9125 10.2675 21.673 10.0625 21.3892 10.0625H19.6892V8.83125C19.6892 6.24477 17.5866 4.14219 15.0001 4.14219C12.4136 4.14219 10.311 6.24477 10.311 8.83125V10.0625H8.61104C8.32639 10.0625 8.08776 10.273 8.04798 10.5515L8.04789 10.5521L6.31821 23.2459L6.31796 23.2458L6.3175 23.2528C6.27351 23.9225 6.5128 24.587 6.97689 25.0759C7.43231 25.575 8.08254 25.8531 8.75635 25.8531H21.2485C21.9229 25.8531 22.5683 25.5746 23.028 25.0806C23.4876 24.5868 23.7266 23.927 23.6827 23.2204ZM11.4485 8.83594C11.4485 6.87554 13.0397 5.28438 15.0001 5.28438C16.9605 5.28438 18.5517 6.87554 18.5517 8.83594V10.0672H11.4485V8.83594ZM7.44967 23.3678L9.11081 11.2047H20.8941L22.5505 23.3347C22.5712 23.6994 22.4452 24.0415 22.1973 24.3067C21.9491 24.5724 21.6099 24.7203 21.2439 24.7203H8.75635C8.39097 24.7203 8.0561 24.5729 7.80257 24.3064C7.55411 24.0404 7.42925 23.6937 7.44967 23.3678Z" fill="black" stroke="black" stroke-width="0.2"/>
<path d="M15.0002 17.8656C17.5867 17.8656 19.6893 15.763 19.6893 13.1766V12.4687C19.6893 12.1557 19.4335 11.9 19.1205 11.9C18.8075 11.9 18.5518 12.1557 18.5518 12.4687V13.1766C18.5518 15.1369 16.956 16.7281 15.0002 16.7281C13.0444 16.7281 11.4486 15.1369 11.4486 13.1766V12.4687C11.4486 12.1557 11.1929 11.9 10.8799 11.9C10.5668 11.9 10.3111 12.1557 10.3111 12.4687V13.1766C10.3111 15.7583 12.4137 17.8656 15.0002 17.8656Z" fill="black" stroke="black" stroke-width="0.2"/>
</svg>
