<svg width="24" height="25" viewBox="0 0 24 25" fill="none" xmlns="http://www.w3.org/2000/svg">
<path d="M12.3013 2.875C8.62127 2.875 5.64127 5.855 5.64127 9.535V11.635C5.64127 12.315 5.36127 13.335 5.01127 13.915L3.74127 16.035C2.96127 17.345 3.50127 18.805 4.94127 19.285C9.72127 20.875 14.8913 20.875 19.6713 19.285C21.0213 18.835 21.6013 17.255 20.8713 16.035L19.6013 13.915C19.2513 13.335 18.9713 12.305 18.9713 11.635V9.535C18.9613 5.875 15.9613 2.875 12.3013 2.875Z" stroke="#221F1F" stroke-width="1.5" stroke-miterlimit="10" stroke-linecap="round"/>
<path d="M15.6112 19.695C15.6112 21.525 14.1112 23.025 12.2812 23.025C11.3712 23.025 10.5312 22.645 9.93117 22.045C9.33117 21.445 8.95117 20.605 8.95117 19.695" stroke="#221F1F" stroke-width="1.5" stroke-miterlimit="10"/>
</svg>
