<svg width="12" height="12" viewBox="0 0 12 12" fill="none" xmlns="http://www.w3.org/2000/svg">
<path fill-rule="evenodd" clip-rule="evenodd" d="M0.125927 0.768C0.233378 0.538483 0.404015 0.344343 0.617843 0.208324C0.831672 0.0723045 1.07984 4.11145e-05 1.33326 1.04371e-08H10.6666C10.92 -3.16905e-05 11.1682 0.0721517 11.382 0.208094C11.5959 0.344036 11.7666 0.538108 11.8741 0.767572C11.9816 0.997037 12.0215 1.25239 11.9892 1.50372C11.9568 1.75506 11.8534 1.99195 11.6913 2.18667L6.99993 7.66667V10.9173C6.99993 11.6533 6.73659 12 5.99993 12C5.26393 12 4.99993 11.6533 4.99993 10.9173V7.66667L0.30926 2.18667C0.147084 1.99204 0.0437093 1.75525 0.0112409 1.504C-0.0212276 1.25275 0.0185535 0.997456 0.125927 0.768ZM5.74993 6.71667C5.78121 6.75214 5.81968 6.78054 5.86278 6.8C5.90588 6.81946 5.95264 6.82952 5.99993 6.82952C6.04722 6.82952 6.09397 6.81946 6.13707 6.8C6.18018 6.78054 6.21865 6.75214 6.24993 6.71667L10.5113 1.88733C10.5538 1.83923 10.5814 1.77988 10.591 1.71641C10.6006 1.65294 10.5917 1.58806 10.5653 1.52956C10.5389 1.47106 10.4961 1.42142 10.4422 1.38661C10.3883 1.3518 10.3254 1.3333 10.2613 1.33333H1.73859C1.67453 1.33341 1.61186 1.35195 1.55806 1.38673C1.50426 1.4215 1.46162 1.47104 1.43525 1.52942C1.40887 1.5878 1.39988 1.65254 1.40934 1.7159C1.4188 1.77925 1.44631 1.83854 1.48859 1.88667L5.74993 6.71667Z" fill="black"/>
</svg>
