<svg width="32" height="32" viewBox="0 0 32 32" fill="none" xmlns="http://www.w3.org/2000/svg">
<g filter="url(#filter0_i_1360_111)">
<path d="M27.3538 13.9712L17.3538 4.5362C17.3489 4.53193 17.3443 4.52734 17.34 4.52245C16.9718 4.18762 16.492 4.00208 15.9944 4.00208C15.4967 4.00208 15.0169 4.18762 14.6488 4.52245L14.635 4.5362L4.64625 13.9712C4.4425 14.1586 4.27985 14.3862 4.16861 14.6396C4.05737 14.8931 3.99996 15.1669 4 15.4437V26.9999C4 27.5304 4.21071 28.0391 4.58579 28.4142C4.96086 28.7892 5.46957 28.9999 6 28.9999H26C26.5304 28.9999 27.0391 28.7892 27.4142 28.4142C27.7893 28.0391 28 27.5304 28 26.9999V15.4437C28 15.1669 27.9426 14.8931 27.8314 14.6396C27.7201 14.3862 27.5575 14.1586 27.3538 13.9712ZM26 26.9999H6V15.4437L6.01375 15.4312L16 5.99995L25.9875 15.4287L26.0012 15.4412L26 26.9999Z" fill="black"/>
</g>
<defs>
<filter id="filter0_i_1360_111" x="4" y="4.00208" width="24" height="39.9979" filterUnits="userSpaceOnUse" color-interpolation-filters="sRGB">
<feFlood flood-opacity="0" result="BackgroundImageFix"/>
<feBlend mode="normal" in="SourceGraphic" in2="BackgroundImageFix" result="shape"/>
<feColorMatrix in="SourceAlpha" type="matrix" values="0 0 0 0 0 0 0 0 0 0 0 0 0 0 0 0 0 0 127 0" result="hardAlpha"/>
<feOffset dy="15"/>
<feGaussianBlur stdDeviation="8.5"/>
<feComposite in2="hardAlpha" operator="arithmetic" k2="-1" k3="1"/>
<feColorMatrix type="matrix" values="0 0 0 0 0.793 0 0 0 0 0.775 0 0 0 0 1 0 0 0 0.25 0"/>
<feBlend mode="normal" in2="shape" result="effect1_innerShadow_1360_111"/>
</filter>
</defs>
</svg>
