<svg width="26" height="26" viewBox="0 0 26 26" fill="none" xmlns="http://www.w3.org/2000/svg">
<path fill-rule="evenodd" clip-rule="evenodd" d="M12.5 21.8333C17.6547 21.8333 21.8333 17.6547 21.8333 12.5C21.8333 7.34534 17.6547 3.16667 12.5 3.16667C7.34534 3.16667 3.16667 7.34534 3.16667 12.5C3.16667 17.6547 7.34534 21.8333 12.5 21.8333ZM23 12.5C23 18.299 18.299 23 12.5 23C6.70101 23 2 18.299 2 12.5C2 6.70101 6.70101 2 12.5 2C18.299 2 23 6.70101 23 12.5Z" fill="black"/>
<path fill-rule="evenodd" clip-rule="evenodd" d="M11.9165 17.1677V10.1667H13.0832V17.1677H11.9165Z" fill="black"/>
<path fill-rule="evenodd" clip-rule="evenodd" d="M11.9165 9.00103V7.83333H13.0832V9.00103H11.9165Z" fill="black"/>
</svg>
