<svg width="26" height="26" viewBox="0 0 26 26" fill="none" xmlns="http://www.w3.org/2000/svg">
<g clip-path="url(#clip0_1566_1032)">
<path d="M24.2511 13C24.2543 10.633 23.5097 8.32538 22.1236 6.40665C20.7374 4.48793 18.7806 3.05613 16.5323 2.31563C16.43 2.28196 16.3184 2.29033 16.2222 2.33889C16.1261 2.38746 16.0531 2.47225 16.0194 2.57461C15.9858 2.67697 15.9941 2.78851 16.0427 2.88469C16.0913 2.98088 16.1761 3.05383 16.2784 3.0875C18.5489 3.83959 20.4924 5.34846 21.7837 7.36176C23.0751 9.37506 23.636 11.7707 23.3726 14.148C23.1093 16.5253 22.0377 18.7401 20.3371 20.422C18.6365 22.1039 16.4099 23.1509 14.0298 23.3878L15.0312 22.3844C15.0721 22.3475 15.105 22.3027 15.128 22.2527C15.151 22.2027 15.1636 22.1486 15.1651 22.0936C15.1665 22.0385 15.1568 21.9838 15.1365 21.9327C15.1161 21.8815 15.0856 21.8351 15.0468 21.7961C15.0079 21.7571 14.9615 21.7264 14.9105 21.7059C14.8594 21.6854 14.8047 21.6755 14.7497 21.6767C14.6947 21.678 14.6405 21.6904 14.5904 21.7132C14.5404 21.736 14.4954 21.7688 14.4584 21.8095L12.7136 23.5625C12.6939 23.5804 12.6768 23.6009 12.6628 23.6234C12.6558 23.6327 12.6504 23.643 12.6465 23.6539C12.6379 23.6668 12.6304 23.6804 12.6242 23.6945L12.612 23.7352C12.6049 23.7446 12.5988 23.7549 12.5937 23.7656C12.5833 23.8179 12.5833 23.8718 12.5937 23.9241C12.5962 23.9365 12.5996 23.9487 12.6039 23.9606L12.6161 24.0013L12.6384 24.0398C12.6422 24.0508 12.6477 24.0611 12.6547 24.0703C12.6692 24.0931 12.6862 24.1142 12.7055 24.1333L14.4544 25.8802C14.5303 25.9567 14.6336 25.9998 14.7414 26.0002C14.8492 26.0006 14.9527 25.9581 15.0292 25.8822C15.1057 25.8062 15.1489 25.703 15.1493 25.5952C15.1497 25.4874 15.1072 25.3838 15.0312 25.3073L13.9344 24.2084C16.7453 23.9718 19.3651 22.6889 21.2755 20.6134C23.1859 18.5378 24.2478 15.8209 24.2511 13Z" fill="#020617"/>
<path d="M9.70537 22.9084C7.43678 22.1538 5.49592 20.6434 4.20715 18.6296C2.91837 16.6159 2.35976 14.2209 2.62467 11.8448C2.88958 9.46865 3.96196 7.25545 5.6626 5.57501C7.36323 3.89456 9.58909 2.8487 11.9682 2.61219L10.9688 3.61563C10.928 3.65251 10.895 3.6973 10.872 3.74729C10.849 3.79728 10.8364 3.85143 10.835 3.90644C10.8335 3.96145 10.8432 4.01619 10.8636 4.06732C10.8839 4.11845 10.9144 4.16492 10.9533 4.2039C10.9921 4.24289 11.0385 4.27357 11.0896 4.29409C11.1406 4.31462 11.1953 4.32455 11.2503 4.32329C11.3054 4.32204 11.3595 4.30962 11.4096 4.28678C11.4597 4.26395 11.5046 4.23118 11.5416 4.19047L13.2865 2.4375C13.3061 2.41962 13.3232 2.39912 13.3372 2.37656C13.3442 2.36731 13.3497 2.35703 13.3535 2.34609C13.3621 2.33324 13.3696 2.31965 13.3758 2.30547L13.388 2.26484C13.3952 2.25535 13.4013 2.24514 13.4063 2.23438C13.4167 2.18207 13.4167 2.12824 13.4063 2.07594C13.4072 2.06377 13.4072 2.05155 13.4063 2.03938L13.3941 1.99875L13.3718 1.96016C13.368 1.94922 13.3625 1.93894 13.3555 1.92969C13.341 1.90687 13.324 1.88575 13.3047 1.86672L11.5376 0.119844C11.4616 0.0454076 11.3595 0.00371408 11.2532 0.00371408C11.1468 0.00371408 11.0447 0.0454076 10.9688 0.119844C10.8931 0.19596 10.8507 0.298924 10.8507 0.40625C10.8507 0.513575 10.8931 0.61654 10.9688 0.692656L12.0657 1.79156C9.48258 2.00662 7.05295 3.10698 5.1875 4.90664C3.32205 6.7063 2.13521 9.09486 1.82758 11.6686C1.51996 14.2423 2.11043 16.8433 3.49918 19.0319C4.88793 21.2205 6.98978 22.8625 9.44943 23.6803C9.49073 23.6939 9.53393 23.7007 9.5774 23.7006C9.67411 23.7009 9.76774 23.6667 9.84146 23.6041C9.91518 23.5415 9.96415 23.4546 9.97957 23.3592C9.995 23.2637 9.97585 23.1659 9.92559 23.0832C9.87533 23.0006 9.79724 22.9386 9.70537 22.9084Z" fill="#020617"/>
<path d="M13.1626 15.4375L14.3244 14.2736C15.1695 14.5382 16.0788 14.5119 16.9071 14.1988C17.7354 13.8857 18.4348 13.304 18.8936 12.5467C19.3523 11.7893 19.544 10.9 19.4378 10.0209C19.3316 9.1418 18.9338 8.32368 18.3079 7.6973C17.682 7.07092 16.8642 6.67246 15.9852 6.5656C15.1062 6.45874 14.2167 6.64966 13.459 7.10783C12.7013 7.566 12.119 8.26498 11.8053 9.09303C11.4916 9.92108 11.4646 10.8304 11.7285 11.6756L6.75599 16.6563C6.68401 16.7276 6.64126 16.8232 6.63615 16.9244L6.53459 19.047C6.53205 19.1037 6.5414 19.1603 6.56204 19.2131C6.58268 19.2659 6.61415 19.3138 6.65443 19.3538C6.73027 19.43 6.83327 19.4731 6.94084 19.4736H6.96115L9.08584 19.372C9.17189 19.3675 9.25427 19.3358 9.32109 19.2814C9.38791 19.227 9.4357 19.1527 9.45756 19.0694L9.83334 17.6475L11.1821 17.3327C11.2557 17.3154 11.323 17.2779 11.3765 17.2244C11.43 17.171 11.4675 17.1036 11.4847 17.03L11.7915 15.7138L12.933 15.5513C13.0198 15.5391 13.1003 15.4992 13.1626 15.4375ZM11.4015 14.95C11.3208 14.9617 11.2455 14.9974 11.1853 15.0524C11.1252 15.1075 11.083 15.1794 11.0643 15.2588L10.7515 16.5994L9.41084 16.9122C9.33948 16.9291 9.27405 16.9651 9.22148 17.0162C9.16891 17.0674 9.13116 17.1318 9.11224 17.2027L8.74865 18.5656L7.3674 18.6327L7.44053 17.1113L12.4821 12.0697C12.5379 12.0139 12.5762 11.9431 12.5925 11.8659C12.6087 11.7888 12.6021 11.7085 12.5735 11.635C12.3878 11.1581 12.3213 10.643 12.3796 10.1345C12.438 9.62603 12.6196 9.13947 12.9085 8.71702C13.1975 8.29457 13.5852 7.949 14.0379 7.71027C14.4907 7.47153 14.9948 7.34685 15.5066 7.34703C15.9217 7.34428 16.3331 7.42444 16.7168 7.58279C17.1005 7.74115 17.4487 7.97452 17.741 8.26922C18.2549 8.77993 18.5768 9.45235 18.6524 10.1729C18.7279 10.8935 18.5525 11.6181 18.1557 12.2243C17.7589 12.8305 17.165 13.2812 16.4744 13.5002C15.7838 13.7192 15.0387 13.6932 14.3651 13.4266C14.2916 13.398 14.2113 13.3914 14.1341 13.4076C14.0569 13.4238 13.9861 13.4622 13.9304 13.518L12.6852 14.7652L11.4015 14.95Z" fill="#020617"/>
<path d="M16.4858 12.0473C16.5617 12.1236 16.6647 12.1667 16.7722 12.1672C16.8262 12.1675 16.8796 12.1571 16.9295 12.1365C16.9794 12.1159 17.0247 12.0856 17.0627 12.0473C17.2669 11.8431 17.4289 11.6007 17.5394 11.3339C17.6499 11.0671 17.7068 10.7812 17.7068 10.4924C17.7068 10.2036 17.6499 9.9177 17.5394 9.6509C17.4289 9.38411 17.2669 9.14169 17.0627 8.9375C16.8585 8.7333 16.6161 8.57133 16.3493 8.46082C16.0825 8.35031 15.7965 8.29343 15.5078 8.29343C15.219 8.29343 14.933 8.35031 14.6663 8.46082C14.3995 8.57133 14.157 8.7333 13.9529 8.9375C13.9148 8.97529 13.8847 9.02024 13.8641 9.06974C13.8435 9.11924 13.833 9.17233 13.833 9.22594C13.8335 9.33351 13.8766 9.43651 13.9529 9.51234L16.4858 12.0473ZM16.4858 9.51437C16.6937 9.72428 16.8294 9.9949 16.8732 10.2871C16.917 10.5792 16.8667 10.8777 16.7296 11.1394L14.8568 9.26656C15.1193 9.12897 15.4189 9.07881 15.7119 9.12338C16.0049 9.16796 16.2761 9.30494 16.4858 9.51437Z" fill="#020617"/>
</g>
<defs>
<clipPath id="clip0_1566_1032">
<rect width="26" height="26" fill="white"/>
</clipPath>
</defs>
</svg>
