<svg width="24" height="24" viewBox="0 0 24 24" fill="none" xmlns="http://www.w3.org/2000/svg">
<path fill-rule="evenodd" clip-rule="evenodd" d="M12.0002 8.23181L20.0512 11.3623V20.6587L12.0002 23.7892L3.94922 20.6587V11.3623L12.0002 8.23181Z" fill="#A45E26"/>
<path fill-rule="evenodd" clip-rule="evenodd" d="M12 8.23181L20.051 11.3623V20.6587L12 23.7892V8.23181Z" fill="#A35623"/>
<path fill-rule="evenodd" clip-rule="evenodd" d="M12 14.483L10.1689 17.6546C10.1689 17.6546 7.48233 16.61 2.10938 14.5208L3.9405 11.3492L12 14.483Z" fill="#C36A26"/>
<path fill-rule="evenodd" clip-rule="evenodd" d="M12 14.483L13.8311 17.6546C13.8311 17.6546 16.5177 16.61 21.8906 14.5208L20.0595 11.3492L12 14.483Z" fill="#C36A26"/>
<path fill-rule="evenodd" clip-rule="evenodd" d="M20.0382 11.3573L11.9998 8.23181L3.96143 11.3573L11.9998 14.483L20.0382 11.3573Z" fill="#9B5D2B"/>
<path fill-rule="evenodd" clip-rule="evenodd" d="M20.0384 11.3573L12 8.23181V14.483L20.0384 11.3573Z" fill="#824E2B"/>
<path fill-rule="evenodd" clip-rule="evenodd" d="M11.9991 12.3673C14.2763 12.3673 16.1335 10.51 16.1335 8.23284C16.1335 5.95575 14.2763 4.09851 11.9991 4.09851C9.72198 4.09851 7.86475 5.95575 7.86475 8.23284C7.86475 10.51 9.72198 12.3673 11.9991 12.3673Z" fill="#62A4FB"/>
<path fill-rule="evenodd" clip-rule="evenodd" d="M13.5647 6.34747C13.7988 6.11342 14.1782 6.11342 14.4122 6.34747C14.6463 6.58147 14.6463 6.96097 14.4122 7.19497L11.4889 10.1183C11.2239 10.3834 10.786 10.3417 10.5732 10.037L9.34338 8.48928C9.13774 8.23067 9.18072 7.85432 9.43933 7.64877C9.69799 7.44313 10.0743 7.48611 10.2799 7.74472L11.1157 8.7965L13.5647 6.34747Z" fill="#EFF4F7"/>
<path fill-rule="evenodd" clip-rule="evenodd" d="M19.5476 7.95655C19.7547 7.95655 19.9226 8.12441 19.9226 8.33155C19.9226 8.53864 19.7547 8.7065 19.5476 8.7065H17.7912C17.5842 8.7065 17.4162 8.53864 17.4162 8.33155C17.4162 8.12441 17.5842 7.95655 17.7912 7.95655H19.5476ZM11.6241 0.585785C11.6241 0.378691 11.792 0.210785 11.9991 0.210785C12.2063 0.210785 12.3741 0.378691 12.3741 0.585785V2.34214C12.3741 2.54924 12.2063 2.71714 11.9991 2.71714C11.792 2.71714 11.6241 2.54924 11.6241 2.34214V0.585785ZM7.83875 1.74707C7.736 1.56828 7.79764 1.34 7.97647 1.2373C8.15525 1.13455 8.38353 1.19619 8.48623 1.37502L9.36439 2.89602C9.46709 3.07475 9.40545 3.30303 9.22667 3.40578C9.04789 3.50853 8.81961 3.44685 8.7169 3.26807L7.83875 1.74707ZM5.13982 4.6476C4.96104 4.54405 4.90001 4.31516 5.00361 4.13638C5.10711 3.9576 5.33604 3.89661 5.51478 4.00016L7.03578 4.87832C7.21456 4.98186 7.27559 5.21075 7.17204 5.38953C7.0685 5.56832 6.83956 5.6293 6.66078 5.52575L5.13982 4.6476ZM4.25342 8.50916C4.04632 8.50916 3.87842 8.3413 3.87842 8.13416C3.87842 7.92707 4.04632 7.75921 4.25342 7.75921H6.00978C6.21687 7.75921 6.38478 7.92707 6.38478 8.13416C6.38478 8.3413 6.21687 8.50916 6.00978 8.50916H4.25342ZM15.4857 1.47364C15.5884 1.29486 15.8167 1.23318 15.9955 1.33593C16.1743 1.43868 16.2359 1.66696 16.1332 1.84574L15.2551 3.36674C15.1524 3.54547 14.9241 3.60716 14.7453 3.50446C14.5666 3.40171 14.5049 3.17343 14.6076 2.99464L15.4857 1.47364ZM18.3849 4.17107C18.5637 4.06752 18.7925 4.1285 18.8961 4.30728C18.9996 4.48607 18.9387 4.71496 18.7599 4.8185L17.2389 5.69666C17.0601 5.80021 16.8312 5.73922 16.7277 5.56044C16.6241 5.38166 16.6851 5.15277 16.8639 5.04922L18.3849 4.17107Z" fill="#FAD808"/>
</svg>
