<svg width="25" height="25" viewBox="0 0 25 25" fill="none" xmlns="http://www.w3.org/2000/svg">
<path d="M16.9272 10.3542C16.7891 10.3542 16.6566 10.2993 16.559 10.2016C16.4613 10.1039 16.4064 9.97147 16.4064 9.83333V6.51042C16.4064 5.47441 15.9949 4.48084 15.2623 3.74828C14.5297 3.01572 13.5362 2.60417 12.5002 2.60417C11.4642 2.60417 10.4706 3.01572 9.73803 3.74828C9.00546 4.48084 8.59391 5.47441 8.59391 6.51042V9.83333C8.59391 9.97147 8.53904 10.1039 8.44136 10.2016C8.34369 10.2993 8.21121 10.3542 8.07308 10.3542C7.93495 10.3542 7.80247 10.2993 7.70479 10.2016C7.60712 10.1039 7.55225 9.97147 7.55225 9.83333V6.51042C7.55225 5.19815 8.07354 3.93963 9.00146 3.01171C9.92937 2.0838 11.1879 1.5625 12.5002 1.5625C13.8124 1.5625 15.071 2.0838 15.9989 3.01171C16.9268 3.93963 17.4481 5.19815 17.4481 6.51042V9.83333C17.4481 9.97147 17.3932 10.1039 17.2955 10.2016C17.1979 10.2993 17.0654 10.3542 16.9272 10.3542Z" fill="black"/>
<path d="M12.5 23.4375C10.9548 23.4375 9.44437 22.9793 8.15961 22.1209C6.87485 21.2624 5.8735 20.0423 5.28219 18.6147C4.69089 17.1872 4.53617 15.6163 4.83762 14.1009C5.13907 12.5854 5.88313 11.1933 6.97573 10.1007C8.06833 9.00813 9.46038 8.26407 10.9759 7.96262C12.4913 7.66117 14.0622 7.81589 15.4897 8.4072C16.9173 8.9985 18.1374 9.99985 18.9959 11.2846C19.8543 12.5694 20.3125 14.0798 20.3125 15.625C20.3102 17.6963 19.4863 19.6821 18.0217 21.1467C16.5571 22.6113 14.5713 23.4352 12.5 23.4375ZM12.5 8.85417C11.1609 8.85417 9.85179 9.25127 8.73833 9.99526C7.62487 10.7392 6.75704 11.7967 6.24457 13.0339C5.7321 14.2711 5.59802 15.6325 5.85927 16.9459C6.12052 18.2593 6.76538 19.4658 7.7123 20.4127C8.65922 21.3596 9.86567 22.0045 11.1791 22.2657C12.4925 22.527 13.8539 22.3929 15.0911 21.8804C16.3283 21.368 17.3858 20.5001 18.1297 19.3867C18.8737 18.2732 19.2708 16.9641 19.2708 15.625C19.2688 13.8299 18.5548 12.1089 17.2854 10.8396C16.0161 9.57026 14.2951 8.85624 12.5 8.85417Z" fill="black"/>
<path d="M12.4998 20.8333C11.4697 20.8333 10.4628 20.5279 9.60624 19.9556C8.74974 19.3833 8.08217 18.5698 7.68797 17.6181C7.29376 16.6664 7.19062 15.6192 7.39158 14.6089C7.59255 13.5986 8.08859 12.6705 8.81699 11.9421C9.54539 11.2137 10.4734 10.7177 11.4837 10.5167C12.4941 10.3158 13.5413 10.4189 14.493 10.8131C15.4447 11.2073 16.2581 11.8749 16.8304 12.7314C17.4027 13.5879 17.7082 14.5949 17.7082 15.625C17.7067 17.0059 17.1574 18.3297 16.181 19.3062C15.2046 20.2826 13.8807 20.8318 12.4998 20.8333ZM12.4998 11.4583C11.6758 11.4583 10.8702 11.7027 10.185 12.1605C9.49976 12.6184 8.96571 13.2691 8.65034 14.0305C8.33498 14.7918 8.25246 15.6296 8.41323 16.4379C8.57401 17.2461 8.97084 17.9886 9.55356 18.5713C10.1363 19.154 10.8787 19.5508 11.687 19.7116C12.4952 19.8724 13.333 19.7899 14.0944 19.4745C14.8557 19.1591 15.5065 18.6251 15.9643 17.9399C16.4221 17.2547 16.6665 16.4491 16.6665 15.625C16.6653 14.5203 16.2259 13.4612 15.4447 12.6801C14.6636 11.899 13.6045 11.4596 12.4998 11.4583Z" fill="black"/>
<path d="M12.4998 16.4062C13.219 16.4062 13.8019 15.8233 13.8019 15.1042C13.8019 14.385 13.219 13.8021 12.4998 13.8021C11.7807 13.8021 11.1978 14.385 11.1978 15.1042C11.1978 15.8233 11.7807 16.4062 12.4998 16.4062Z" fill="black"/>
<path d="M12.4998 17.7083C12.3617 17.7083 12.2292 17.6535 12.1316 17.5558C12.0339 17.4581 11.979 17.3256 11.979 17.1875V16.1458C11.979 16.0077 12.0339 15.8752 12.1316 15.7775C12.2292 15.6799 12.3617 15.625 12.4998 15.625C12.638 15.625 12.7704 15.6799 12.8681 15.7775C12.9658 15.8752 13.0207 16.0077 13.0207 16.1458V17.1875C13.0207 17.3256 12.9658 17.4581 12.8681 17.5558C12.7704 17.6535 12.638 17.7083 12.4998 17.7083Z" fill="black"/>
</svg>
