<svg width="32" height="32" viewBox="0 0 32 32" fill="none" xmlns="http://www.w3.org/2000/svg">
<path d="M28.7342 26.5732C26.7889 23.2125 23.7587 20.831 20.2306 19.7707C21.9004 18.8619 23.2354 17.4382 24.0344 15.7083C24.8682 13.9029 25.0697 11.8694 24.6064 9.93551C24.1431 8.00163 23.042 6.28016 21.4806 5.04865C19.9192 3.81715 17.9885 3.14741 15.9999 3.14741C14.0113 3.14741 12.0807 3.81715 10.5193 5.04865C8.95792 6.28016 7.8568 8.00163 7.39349 9.93551C6.93018 11.8694 7.13169 13.9029 7.96552 15.7083C8.7645 17.4381 10.0994 18.8619 11.7692 19.7706C8.24112 20.8298 5.21101 23.2113 3.26565 26.5732C3.20479 26.6694 3.16389 26.777 3.1454 26.8894C3.12679 27.0025 3.13126 27.1182 3.15854 27.2296C3.18581 27.3409 3.23533 27.4456 3.3041 27.5373C3.37288 27.629 3.4595 27.7059 3.55875 27.7632C3.658 27.8206 3.76783 27.8573 3.88164 27.8711C3.99544 27.885 4.11086 27.8756 4.22096 27.8437C4.33106 27.8117 4.43356 27.7579 4.52229 27.6853C4.61046 27.6132 4.68323 27.5241 4.73628 27.4233C7.12024 23.3058 11.3296 20.85 15.9999 20.85C20.6703 20.85 24.8796 23.3058 27.2636 27.4233C27.3167 27.5241 27.3894 27.6132 27.4776 27.6853C27.5663 27.7579 27.6688 27.8117 27.7789 27.8437C27.889 27.8756 28.0044 27.885 28.1183 27.8711C28.2321 27.8573 28.3419 27.8206 28.4411 27.7632C28.5404 27.7059 28.627 27.629 28.6958 27.5373C28.7646 27.4456 28.8141 27.3409 28.8414 27.2296C28.8686 27.1182 28.8731 27.0025 28.8545 26.8894C28.836 26.777 28.7951 26.6694 28.7342 26.5732ZM8.84994 11.9999C8.84997 10.5858 9.26931 9.20344 10.0549 8.02766C10.8406 6.85185 11.9573 5.93542 13.2638 5.39425C14.5702 4.85308 16.0079 4.71149 17.3948 4.98737C18.7818 5.26326 20.0558 5.94423 21.0558 6.94417C22.0557 7.94412 22.7367 9.21813 23.0126 10.6051C23.2884 11.9921 23.1468 13.4297 22.6057 14.7362C22.0645 16.0427 21.1481 17.1593 19.9723 17.945C18.7965 18.7306 17.4142 19.15 16.0001 19.15C14.1044 19.1477 12.2871 18.3937 10.9467 17.0532C9.60628 15.7128 8.85223 13.8955 8.84994 11.9999Z" fill="black" stroke="black" stroke-width="0.2"/>
</svg>
