<svg width="30" height="30" viewBox="0 0 30 30" fill="none" xmlns="http://www.w3.org/2000/svg">
<path d="M11.0669 10.1831C10.8229 9.93898 10.4271 9.93898 10.1831 10.1831C9.93898 10.4271 9.93898 10.8229 10.1831 11.0669L14.1161 15L10.1831 18.933C9.93898 19.1771 9.93898 19.5729 10.1831 19.817C10.4271 20.061 10.8229 20.061 11.0669 19.817L15 15.8839L18.933 19.817C19.1771 20.061 19.5729 20.061 19.817 19.817C20.061 19.5729 20.061 19.1771 19.817 18.933L15.8839 15L19.817 11.0669C20.061 10.8229 20.061 10.4271 19.817 10.1831C19.5729 9.93898 19.1771 9.93898 18.933 10.1831L15 14.1161L11.0669 10.1831Z" fill="black"/>
<path fill-rule="evenodd" clip-rule="evenodd" d="M2.5 8.75C2.5 5.29822 5.29822 2.5 8.75 2.5H21.25C24.7017 2.5 27.5 5.29822 27.5 8.75V21.25C27.5 24.7017 24.7017 27.5 21.25 27.5H8.75C5.29822 27.5 2.5 24.7017 2.5 21.25V8.75ZM8.75 3.75H21.25C24.0114 3.75 26.25 5.98857 26.25 8.75V21.25C26.25 24.0114 24.0114 26.25 21.25 26.25H8.75C5.98857 26.25 3.75 24.0114 3.75 21.25V8.75C3.75 5.98857 5.98857 3.75 8.75 3.75Z" fill="black"/>
</svg>
