<svg width="24" height="24" viewBox="0 0 24 24" fill="none" xmlns="http://www.w3.org/2000/svg">
<path d="M2.24937 0.749664H21.7495C22.5803 0.749664 23.2493 1.41864 23.2493 2.24964V21.7497C23.2493 22.5807 22.5803 23.2496 21.7495 23.2496H2.24937C1.41825 23.2496 0.749268 22.5807 0.749268 21.7497V2.24964C0.749268 1.41864 1.41825 0.749664 2.24937 0.749664Z" fill="#FFE9EC"/>
<path d="M6.62026 10.0383L7.50206 18.0546C7.5905 18.8574 8.29368 19.4979 9.15533 19.4979H14.8475C15.7092 19.4979 16.4084 18.8574 16.4969 18.0546L17.3787 10.0383C17.4079 9.76445 16.4137 9.6856 16.3865 9.92793L15.5038 17.9443C15.4709 18.2428 15.2264 18.4979 14.8475 18.4979H9.15533C8.77644 18.4979 8.5281 18.2428 8.4952 17.9443L7.6134 9.92793C7.58445 9.67335 6.5911 9.76408 6.62026 10.0383Z" fill="#FF4B00"/>
<path d="M10.1231 4.49844C9.26107 4.49844 8.56936 5.14322 8.47277 5.93785L8.33996 7.03352C8.30598 7.30785 9.29963 7.42997 9.33309 7.15558L9.4659 6.05991C9.50301 5.75466 9.7446 5.4984 10.1231 5.4984H13.8769C14.2554 5.4984 14.496 5.75466 14.5331 6.05991L14.6698 7.15558C14.7033 7.42824 15.693 7.30783 15.659 7.03352L15.5262 5.93785C15.4297 5.14322 14.7389 4.49844 13.8769 4.49844H10.1231Z" fill="#FF4B00"/>
<path d="M7.00043 6.83457C5.98046 6.83457 5.50367 7.80118 5.50195 8.33673V9.62483C5.50284 9.89965 5.72541 10.1222 6.00022 10.1231H17.9991C18.2753 10.1242 18.5001 9.90108 18.501 9.62483V8.33673C18.501 7.51449 17.8211 6.83457 16.9989 6.83457H7.00043ZM7.00043 7.83478H16.9989C17.2846 7.83478 17.5008 8.051 17.5008 8.33673V9.12287H6.49848V8.39209C6.54338 8.0392 6.7191 7.83478 7.00043 7.83478Z" fill="#FF4B00"/>
<path d="M9.5804 11.8541C9.5149 11.8612 9.45142 11.8811 9.39366 11.9128C9.33589 11.9445 9.28497 11.9873 9.24381 12.0388C9.20265 12.0902 9.17206 12.1493 9.15382 12.2126C9.13558 12.2759 9.13003 12.3422 9.1375 12.4077L9.53611 16.0653C9.55044 16.1969 9.6164 16.3174 9.7195 16.4005C9.82259 16.4835 9.95442 16.5222 10.086 16.5082C10.2176 16.4939 10.3382 16.4279 10.4212 16.3248C10.5042 16.2217 10.543 16.0899 10.5289 15.9583L10.1303 12.297C10.116 12.1654 10.0501 12.0448 9.94695 11.9618C9.84386 11.8788 9.71203 11.84 9.5804 11.8541Z" fill="#FF4B00"/>
<path d="M12.0273 11.8541C11.8953 11.8545 11.7688 11.9071 11.6754 12.0005C11.5821 12.0938 11.5295 12.2203 11.5291 12.3523V16.0136C11.5295 16.1457 11.5821 16.2722 11.6754 16.3655C11.7688 16.4589 11.8953 16.5115 12.0273 16.5119C12.093 16.5122 12.1581 16.4995 12.2189 16.4746C12.2797 16.4497 12.3349 16.4131 12.3816 16.3668C12.4282 16.3205 12.4652 16.2655 12.4906 16.2049C12.5159 16.1443 12.5291 16.0793 12.5293 16.0136V12.3523C12.5291 12.2867 12.5159 12.2217 12.4906 12.1611C12.4652 12.1005 12.4282 12.0455 12.3816 11.9992C12.3349 11.9529 12.2797 11.9163 12.2189 11.8914C12.1581 11.8665 12.093 11.8538 12.0273 11.8541Z" fill="#FF4B00"/>
<path d="M14.3968 11.8541C14.2789 11.8607 14.1672 11.9088 14.0814 11.9898C13.9956 12.0709 13.9413 12.1797 13.928 12.297L13.5294 15.9583C13.5154 16.0899 13.5541 16.2217 13.6372 16.3248C13.7202 16.4279 13.8407 16.4939 13.9723 16.5082C14.104 16.5222 14.2358 16.4835 14.3389 16.4005C14.442 16.3174 14.5079 16.1969 14.5223 16.0653L14.9209 12.4077C14.9283 12.3422 14.9228 12.2759 14.9046 12.2126C14.8863 12.1493 14.8557 12.0902 14.8146 12.0388C14.7734 11.9873 14.7225 11.9445 14.6647 11.9128C14.6069 11.8811 14.5435 11.8612 14.478 11.8541C14.451 11.8519 14.4238 11.8519 14.3968 11.8541Z" fill="#FF4B00"/>
</svg>
