<svg width="23" height="24" viewBox="0 0 23 24" fill="none" xmlns="http://www.w3.org/2000/svg">
<path d="M22.4363 4.54499C22.2631 4.29932 22.0335 4.09886 21.7667 3.9605C21.4999 3.82215 21.2038 3.74995 20.9032 3.74999H5.7675L5.3625 1.92449C5.29003 1.59087 5.10527 1.29223 4.83908 1.07846C4.57289 0.864686 4.2414 0.748741 3.9 0.749995H1.5C1.30109 0.749995 1.11032 0.829012 0.96967 0.969665C0.829018 1.11032 0.75 1.30108 0.75 1.49999C0.75 1.69891 0.829018 1.88967 0.96967 2.03032C1.11032 2.17098 1.30109 2.24999 1.5 2.24999H3.9L6.76725 15.1627C6.8043 15.3294 6.89711 15.4785 7.03035 15.5852C7.16358 15.692 7.32926 15.7501 7.5 15.75H17.1645C17.783 15.7491 18.3861 15.5573 18.8916 15.201C19.3971 14.8446 19.7803 14.341 19.989 13.7587L22.6695 6.25875C22.7711 5.97535 22.8029 5.67166 22.7623 5.37337C22.7217 5.07508 22.6099 4.79094 22.4363 4.54499Z" fill="#F26674"/>
<path d="M8.25 23.25C9.49264 23.25 10.5 22.2426 10.5 21C10.5 19.7574 9.49264 18.75 8.25 18.75C7.00736 18.75 6 19.7574 6 21C6 22.2426 7.00736 23.25 8.25 23.25Z" fill="#CC5269"/>
<path d="M16.5 23.25C17.7426 23.25 18.75 22.2426 18.75 21C18.75 19.7574 17.7426 18.75 16.5 18.75C15.2574 18.75 14.25 19.7574 14.25 21C14.25 22.2426 15.2574 23.25 16.5 23.25Z" fill="#CC5269"/>
<path d="M19.5 19.5H6.375C5.67881 19.5 5.01113 19.2234 4.51884 18.7312C4.02656 18.2389 3.75 17.5712 3.75 16.875C3.75 16.1788 4.02656 15.5111 4.51884 15.0188C5.01113 14.5266 5.67881 14.25 6.375 14.25H16.5C16.6989 14.25 16.8897 14.329 17.0303 14.4697C17.171 14.6103 17.25 14.8011 17.25 15C17.25 15.1989 17.171 15.3897 17.0303 15.5303C16.8897 15.671 16.6989 15.75 16.5 15.75H6.375C6.07663 15.75 5.79048 15.8685 5.5795 16.0795C5.36853 16.2905 5.25 16.5766 5.25 16.875C5.25 17.1734 5.36853 17.4595 5.5795 17.6705C5.79048 17.8815 6.07663 18 6.375 18H19.5C19.6989 18 19.8897 18.079 20.0303 18.2197C20.171 18.3603 20.25 18.5511 20.25 18.75C20.25 18.9489 20.171 19.1397 20.0303 19.2803C19.8897 19.421 19.6989 19.5 19.5 19.5Z" fill="#F26674"/>
<path d="M17.0252 6.32699C16.8032 6.09249 16.5342 5.90748 16.2358 5.78405C15.9374 5.66063 15.6163 5.60157 15.2935 5.61074C14.927 5.64987 14.5746 5.77302 14.2636 5.97062C13.9525 6.16822 13.6913 6.43493 13.5002 6.74999C13.3095 6.4351 13.0486 6.16847 12.738 5.97088C12.4273 5.77328 12.0753 5.65003 11.7092 5.61074C11.3864 5.60157 11.0653 5.66063 10.7669 5.78405C10.4685 5.90748 10.1995 6.09249 9.97746 6.32699C9.51482 6.84709 9.25626 7.51719 9.24964 8.21324C9.24302 8.9093 9.48879 9.58419 9.94146 10.113C11.6252 12.102 12.823 13.113 13.5002 13.113C14.1775 13.113 15.3752 12.1042 17.0252 10.1542C17.492 9.62607 17.7496 8.9455 17.7496 8.24062C17.7496 7.53574 17.492 6.85517 17.0252 6.32699Z" fill="#FFDE76"/>
</svg>
